<svg version="1.1" xmlns="http://www.w3.org/2000/svg" xmlns:xlink="http://www.w3.org/1999/xlink" xmlns:i="http://ns.adobe.com/AdobeIllustrator/10.0/" xmlns:sketch="http://www.bohemiancoding.com/sketch/ns" viewBox="0 0 640 480" xml:space="preserve" preserveAspectRatio="xMidYMid meet" class="">{{text2Gradient}}<rect x="0px" y="0px" width="100%" height="100%" fill="#0f2b3e"></rect><defs><pattern id="pattern_5655_kj0j1416_Unrv1559" x="0" y="0" width="50" height="50" patternUnits="userSpaceOnUse" patternTransform="rotate(0) scale(1.0)">
<g>
	<polygon points="50,32.7 25.2,16 0,32.7 0,35.1 25.2,18.4 50,35.1 	" fill="#1c3548"></polygon>
</g>
<g>
	<polygon points="50,47.6 25.2,30.9 0,47.6 0,50 25.2,33.3 50,50 	" fill="#1c3548"></polygon>
</g>
<g>
	<polygon points="50,16.7 50,19.1 25.2,2.4 0,19.1 0,16.7 25.2,0 	" fill="#1c3548"></polygon>
</g>
</pattern></defs><rect class="dh_lm_bg_pattern_2907" x="0px" y="0px" width="640" height="480" fill="url(#pattern_5655_kj0j1416_Unrv1559)" style="opacity:1"></rect><g class="logo-container-box logoContainerBox" transform="scale(0.99) translate(3.2323232323232105,2.4242424242424363)"><g class="containerBody" transform="scale(1.12) translate(-34.285714285714334,-46.99662671770369)"><g class="sampleIconBox" transform="scale(1) translate(0,4)"><g class="sampleIcons_1" transform="scale(1.4579821995256805) translate(169.4809178832575,81.75661640573054)" fill="#9ec9f8"><g><path d="M71.187,38.006c-4.571,0-8.29,3.82-8.29,8.516c0,2.475,1.049,4.824,2.878,6.443c0.791,0.701,1.388,1.628,1.726,2.682  l0.403,1.256c0.066,0.206,0.259,0.347,0.476,0.347h5.614c0.217,0,0.409-0.141,0.476-0.347l0.404-1.257  c0.337-1.053,0.934-1.979,1.725-2.681c1.83-1.62,2.879-3.969,2.879-6.443C79.477,41.826,75.758,38.006,71.187,38.006z   M70.567,56.249l-1.607-6.612l0.344-0.345l0.361,0.362c0.146,0.146,0.385,0.146,0.531,0l0.361-0.362l0.363,0.362  c0.07,0.07,0.165,0.11,0.265,0.11s0.195-0.04,0.266-0.11l0.361-0.362l0.361,0.362c0.146,0.146,0.385,0.146,0.531,0l0.361-0.362  l0.344,0.345l-1.607,6.612H70.567z M75.936,52.217c-0.927,0.819-1.623,1.899-2.015,3.123l-0.292,0.909h-0.794l2.005-8.252  c0.064-0.269-0.1-0.539-0.368-0.604c-0.272-0.065-0.539,0.1-0.604,0.368l-0.248,1.022l-0.286-0.286  c-0.07-0.07-0.166-0.11-0.266-0.11s-0.195,0.04-0.266,0.11l-0.361,0.362l-0.361-0.362c-0.143-0.141-0.391-0.141-0.531,0  l-0.361,0.362l-0.363-0.362c-0.146-0.146-0.384-0.146-0.53,0l-0.361,0.362l-0.361-0.362c-0.143-0.141-0.391-0.141-0.531,0  l-0.286,0.286l-0.248-1.022c-0.065-0.268-0.333-0.433-0.604-0.368c-0.269,0.065-0.433,0.335-0.368,0.604l2.005,8.252h-0.794  l-0.291-0.908c-0.393-1.225-1.089-2.305-2.016-3.124c-1.614-1.431-2.54-3.506-2.54-5.695c0-4.144,3.271-7.516,7.29-7.516  s7.29,3.372,7.29,7.516C78.477,48.71,77.55,50.786,75.936,52.217z"></path><path d="M74.084,57.678h-5.796c-0.276,0-0.5,0.224-0.5,0.5s0.224,0.5,0.5,0.5h5.796c0.276,0,0.5-0.224,0.5-0.5  S74.36,57.678,74.084,57.678z"></path><path d="M74.084,59.106h-5.796c-0.276,0-0.5,0.224-0.5,0.5s0.224,0.5,0.5,0.5h5.796c0.276,0,0.5-0.224,0.5-0.5  S74.36,59.106,74.084,59.106z"></path><path d="M74.084,60.551h-5.796c-0.276,0-0.5,0.224-0.5,0.5s0.224,0.5,0.5,0.5h5.796c0.276,0,0.5-0.224,0.5-0.5  S74.36,60.551,74.084,60.551z"></path><path d="M71.186,63.104c1.357,0,2.456-0.589,2.456-1.145H68.73C68.73,62.515,69.829,63.104,71.186,63.104z"></path><path d="M71.187,36.747c0.276,0,0.5-0.224,0.5-0.5v-2.408c0-0.276-0.224-0.5-0.5-0.5s-0.5,0.224-0.5,0.5v2.408  C70.687,36.523,70.91,36.747,71.187,36.747z"></path><path d="M79.44,37.05l-1.703,1.703c-0.195,0.195-0.195,0.512,0,0.707c0.098,0.098,0.226,0.146,0.354,0.146s0.256-0.049,0.354-0.146  l1.703-1.703c0.195-0.195,0.195-0.512,0-0.707S79.636,36.855,79.44,37.05z"></path><path d="M64.281,39.606c0.128,0,0.256-0.049,0.354-0.146c0.195-0.195,0.195-0.512,0-0.707l-1.703-1.703  c-0.195-0.195-0.512-0.195-0.707,0s-0.195,0.512,0,0.707l1.703,1.703C64.025,39.558,64.153,39.606,64.281,39.606z"></path><path d="M61.421,45.512h-2.408c-0.276,0-0.5,0.224-0.5,0.5s0.224,0.5,0.5,0.5h2.408c0.276,0,0.5-0.224,0.5-0.5  S61.697,45.512,61.421,45.512z"></path><path d="M83.359,45.512h-2.408c-0.276,0-0.5,0.224-0.5,0.5s0.224,0.5,0.5,0.5h2.408c0.276,0,0.5-0.224,0.5-0.5  S83.636,45.512,83.359,45.512z"></path><path d="M71.187,29.377c-8.29,0-15.72,2.626-20.707,6.753C47.286,28.8,37.617,23.728,26.62,23.728  c-13.771,0-24.974,7.879-24.974,17.565S12.849,58.858,26.62,58.858c1.768,0,3.553-0.136,5.312-0.403l14.366,8.326  c0.078,0.045,0.165,0.067,0.25,0.067c0.122,0,0.242-0.044,0.337-0.13c0.161-0.147,0.208-0.382,0.117-0.579l-5.057-10.97  c1.053-0.575,2.023-1.224,2.932-1.91c1.475,4.062,4.813,7.672,9.67,10.312l-5.528,11.99c-0.091,0.197-0.044,0.432,0.117,0.579  c0.095,0.086,0.215,0.13,0.337,0.13c0.086,0,0.173-0.022,0.25-0.067l15.666-9.079c1.917,0.292,3.866,0.44,5.798,0.44  c14.98,0,27.168-8.565,27.168-19.094S86.167,29.377,71.187,29.377z M41.062,54.508c-0.236,0.124-0.333,0.411-0.222,0.652  l4.594,9.965l-13.005-7.538c-0.11-0.117-0.274-0.178-0.443-0.152c-1.774,0.281-3.579,0.424-5.365,0.424  c-13.219,0-23.974-7.432-23.974-16.565S13.401,24.728,26.62,24.728c10.753,0,20.17,4.957,23.07,12.087  c-3.551,3.227-5.672,7.27-5.672,11.656c0,1.29,0.189,2.555,0.536,3.786C43.497,53.081,42.333,53.843,41.062,54.508z M71.187,66.565  c-1.95,0-3.92-0.155-5.853-0.461c-0.162-0.022-0.311,0.03-0.416,0.138l-14.33,8.306l5.064-10.985  c0.111-0.241,0.014-0.528-0.223-0.652c-5.074-2.653-8.481-6.369-9.797-10.534c-0.006-0.047-0.02-0.09-0.04-0.134  c-0.373-1.224-0.575-2.485-0.575-3.77c0-9.977,11.739-18.094,26.168-18.094c14.429,0,26.168,8.117,26.168,18.094  S85.615,66.565,71.187,66.565z"></path><path d="M27.952,27.962c-3.789-0.738-7.538,1.319-8.912,4.887c-0.095,0.248-0.082,0.529,0.036,0.771  c0.121,0.249,0.341,0.438,0.604,0.519l1.068,0.329c0.489,0.15,1.007-0.104,1.205-0.589c0.861-2.12,3.139-3.331,5.412-2.888  c1.961,0.381,3.512,2.043,3.772,4.043c0.246,1.889-0.593,3.69-2.188,4.701c-2.569,1.628-4.103,4.296-4.103,7.137v2.364  c0,0.387,0.314,0.701,0.701,0.701h1.685c0.386,0,0.701-0.314,0.701-0.701v-2.364c0-1.778,0.998-3.471,2.668-4.53  c2.622-1.661,4-4.614,3.596-7.706C33.767,31.336,31.199,28.592,27.952,27.962z M30.064,41.498c-1.962,1.243-3.133,3.252-3.133,5.375  v2.065h-1.086v-2.065c0-2.496,1.36-4.849,3.638-6.292c1.927-1.222,2.94-3.396,2.644-5.675c-0.314-2.421-2.195-4.434-4.572-4.896  c-2.74-0.536-5.49,0.932-6.515,3.502l-1.068-0.304c1.198-3.115,4.474-4.909,7.788-4.265c2.831,0.549,5.069,2.942,5.443,5.822  C33.557,37.468,32.354,40.047,30.064,41.498z"></path><path d="M27.802,50.554h-2.885c-0.392,0-0.709,0.317-0.709,0.709v2.301c0,0.392,0.318,0.709,0.709,0.709h2.885  c0.392,0,0.709-0.317,0.709-0.709v-2.301C28.511,50.872,28.194,50.554,27.802,50.554z"></path></g></g></g><g class="sampleTexts_1" transform="scale(1) translate(-0.0000152587890625,4.159997558593744)"><g class="logo--name svgLogoName_1 logoNameBox" transform="scale(1) translate(145.91434621810913,307.0399993896484)" fill="#ffffff"><path d="M23.76-22.88L6.60-57.20L4.40-57.20L4.40 0L14.96 0L14.96-24.20L22.62-8.80L24.82-8.80L32.56-24.20L32.56 0L43.12 0L43.12-57.20L40.92-57.20ZM81.96-31.68C81.96-39.34 76.94-43.12 67-43.12C57.06-43.12 52.04-39.34 52.04-31.68L52.04-10.56C52.04-2.90 57.06 0.88 67 0.88C76.94 0.88 81.96-2.90 81.96-10.56L81.96-14.96L71.40-14.96L71.40-11.44C71.40-9.68 69.90-8.80 67-8.80C64.10-8.80 62.60-9.68 62.60-11.44L62.60-17.16L81.96-17.16ZM62.60-30.80C62.60-32.56 64.10-33.44 67-33.44C69.90-33.44 71.40-32.56 71.40-30.80L71.40-25.08L62.60-25.08ZM109.36-40.04L108.30-40.83C106.90-41.80 103.29-43.12 99.68-43.12C93.61-43.12 90.00-40.57 90.00-31.68L90.00-10.56C90.00-1.67 93.61 0.88 99.68 0.88C103.82 0.88 106.98-0.18 109.36-2.20L109.36 6.16C109.36 8.54 107.34 9.68 103.20 9.68L97.04 9.68L97.04 19.36L103.20 19.36C114.38 19.36 119.92 14.96 119.92 6.16L119.92-42.24L110.24-42.24ZM108.83-9.50C108.13-9.15 106.46-8.80 104.96-8.80C102.06-8.80 100.56-9.68 100.56-11.44L100.56-30.80C100.56-32.56 102.06-33.44 104.96-33.44C106.72-33.44 108.22-33.18 109.36-32.56L109.36-9.68ZM148.20-40.04L147.14-40.83C145.74-41.80 142.13-43.12 138.52-43.12C132.45-43.12 128.84-40.57 128.84-31.68L128.84-10.56C128.84-1.67 132.45 0.88 138.52 0.88C142.66 0.88 145.82-0.18 148.20-2.20L149.08 0L158.76 0L158.76-42.24L149.08-42.24ZM147.67-9.50C146.97-9.15 145.30-8.80 143.80-8.80C140.90-8.80 139.40-9.68 139.40-11.44L139.40-30.80C139.40-32.56 140.90-33.44 143.80-33.44C145.56-33.44 147.06-33.18 148.20-32.56L148.20-9.68ZM187.92-22.88L170.76-57.20L168.56-57.20L168.56 0L179.12 0L179.12-24.20L186.78-8.80L188.98-8.80L196.72-24.20L196.72 0L207.28 0L207.28-57.20L205.08-57.20ZM227.64 0L227.64-42.24L217.08-42.24L217.08 0ZM217.08-47.52L227.64-47.52L227.64-61.60L217.08-61.60ZM248.00-32.56L248.53-32.74C249.23-33.09 250.90-33.44 252.40-33.44C255.30-33.44 256.80-32.56 256.80-30.80L256.80 0L267.36 0L267.36-31.68C267.36-40.57 263.75-43.12 257.68-43.12C253.54-43.12 250.38-42.06 248.00-40.04L247.12-42.24L237.44-42.24L237.44 0L248.00 0ZM295.20-40.04L294.14-40.83C292.74-41.80 289.13-43.12 285.52-43.12C279.45-43.12 275.84-40.57 275.84-31.68L275.84-10.56C275.84-1.67 279.45 0.88 285.52 0.88C289.66 0.88 292.82-0.18 295.20-2.20L296.08 0L305.76 0L305.76-61.60L295.20-61.60ZM294.67-9.50C293.97-9.15 292.30-8.80 290.80-8.80C287.90-8.80 286.40-9.68 286.40-11.44L286.40-30.80C286.40-32.56 287.90-33.44 290.80-33.44C292.56-33.44 294.06-33.18 295.20-32.56L295.20-9.68ZM328.76-26.14C326.38-26.93 325.24-27.90 325.24-29.04L325.24-31.68C325.24-32.82 326.38-33.44 328.76-33.44C331.14-33.44 332.28-32.82 332.28-31.68L332.28-27.28L342.84-27.28L342.84-32.56C342.84-39.60 338.18-43.12 328.76-43.12C319.34-43.12 314.68-39.60 314.68-32.56L314.68-29.04C314.33-24.90 315.91-22.44 317.67-20.68C318.73-19.71 322.07-18.30 323.92-17.60C324.89-17.34 326.56-16.81 328.76-16.02C332.37-14.87 333.16-14.43 333.16-12.32L333.16-11.44C333.16-9.68 331.66-8.80 328.76-8.80C325.86-8.80 324.36-9.68 324.36-11.44L324.36-14.96L313.80-14.96L313.80-10.56C313.80-2.90 318.82 0.88 328.76 0.88C338.70 0.88 343.72-2.90 343.72-10.56L343.72-13.20C344.07-17.07 342.58-19.54 340.73-21.12C340.29-21.56 339.32-22.18 337.82-22.79C336.42-23.41 335.18-23.94 334.04-24.29C332.98-24.73 331.22-25.34 328.76-26.14Z"></path></g><g id="" class="logo--name svgSloganText_1 sloganBox" transform="scale(1) translate(218.08999967575073,364.32999954223635)" fill="#ffffff"><path d="M8.26 0.28C11.45 0.28 15.62-0.81 15.62-4.93C15.62-8.90 11.84-10.25 8.90-11.09C6.50-11.76 4.98-12.46 4.98-14.25C4.98-15.01 5.63-16.18 7.59-16.18C9.63-16.18 11.87-14.98 12.80-12.43C13.02-11.84 13.13-11.62 13.55-11.62C15.18-11.62 14.98-14.34 14.14-16.35C12.96-17.16 10.14-17.84 7.76-17.84C4.17-17.84 0.98-16.13 0.98-12.57C0.98-9.32 3.81-7.42 6.64-6.61C9.10-5.91 11.20-5.15 11.20-3.47C11.20-2.32 10.58-1.32 8.57-1.34C6.38-1.37 4.06-2.52 3.02-5.21C2.80-5.80 2.69-6.02 2.27-6.02C0.64-6.02 0.84-3.30 1.68-1.29C2.86-0.48 5.77 0.28 8.26 0.28ZM34.39 0.17C37.80 0.17 41.19-1.76 41.19-6.27C41.19-10.81 37.78-12.88 34.28-12.88C30.86-12.88 27.44-10.95 27.44-6.44C27.44-1.90 30.89 0.17 34.39 0.17ZM34.81-1.12C33.13-1.12 31.95-4.14 31.95-7.56C31.95-10.19 32.68-11.59 33.86-11.59C35.54-11.59 36.71-8.60 36.71-5.15C36.71-2.52 35.93-1.12 34.81-1.12ZM56.93 0.14C57.97 0.14 59.17-0.17 60.01-0.70L60.01-1.93C58.75-1.62 58.28-1.93 58.28-2.83L58.28-17.16C58.28-18.00 57.83-18.42 56.88-18.28L52.31-17.53L52.31-16.27C53.35-16.35 54.08-16.16 54.08-14.81L54.08-2.44C54.08-0.90 55.11 0.14 56.93 0.14ZM76.98 0.17C79.20 0.17 80.40-0.84 81.21-1.88C81.35-2.07 81.52-2.21 81.66-2.21C81.86-2.21 81.97-1.99 82.05-1.65C82.28-1.15 82.50 0.14 84.66 0.14C85.64 0.14 86.90-0.14 87.40-0.56L87.40-1.82C86.42-1.65 85.94-1.96 85.94-2.86L85.94-11.70C85.94-12.54 85.50-12.96 84.52-12.82L79.98-12.07L79.98-10.81C81.02-10.89 81.74-10.70 81.74-9.38L81.74-5.88C81.74-3.81 80.88-2.63 79.22-2.63C77.80-2.63 77.10-3.89 77.10-5.88L77.10-11.70C77.10-12.54 76.65-12.96 75.70-12.82L71.13-12.07L71.13-10.81C72.17-10.89 72.90-10.70 72.90-9.38L72.90-5.04C72.90-0.64 74.94 0.17 76.98 0.17ZM104.82 0.14C106.50 0.14 107.45-0.42 108.01-0.90L107.40-2.02C106.89-1.60 106.30-1.54 105.91-1.54C104.85-1.54 104.71-2.55 104.71-3.72L104.71-10.30C104.71-11.03 105.02-11.20 105.60-11.20L108.04-11.20L108.04-12.63L105.60-12.63C105.02-12.63 104.71-12.80 104.71-13.41L104.71-15.74L102.97-15.74C102.44-13.72 101.40-12.54 98.52-12.21L98.52-11.20L99.64-11.20C100.28-11.20 100.51-11.00 100.51-10.30L100.51-4.54C100.51-1.37 101.82 0.14 104.82 0.14ZM122.80-13.94C124.12-13.94 125.18-14.98 125.18-16.30C125.18-17.70 124.12-18.73 122.80-18.73C121.46-18.73 120.36-17.70 120.36-16.30C120.36-14.98 121.46-13.94 122.80-13.94ZM119.24 0L126.97 0L126.97-1.23C125.71-1.32 125.24-1.76 125.24-3.11L125.24-11.70C125.24-12.54 124.79-12.96 123.84-12.82L119.27-12.07L119.27-10.81C120.31-10.89 121.04-10.70 121.04-9.38L121.04-3.11C121.04-1.76 120.56-1.32 119.24-1.23ZM145.46 0.17C148.87 0.17 152.26-1.76 152.26-6.27C152.26-10.81 148.84-12.88 145.34-12.88C141.93-12.88 138.51-10.95 138.51-6.44C138.51-1.90 141.96 0.17 145.46 0.17ZM145.88-1.12C144.20-1.12 143.02-4.14 143.02-7.56C143.02-10.19 143.75-11.59 144.92-11.59C146.60-11.59 147.78-8.60 147.78-5.15C147.78-2.52 147.00-1.12 145.88-1.12ZM177.30 0.14C178.19 0.14 179.59-0.11 180.07-0.56L180.07-1.82C179.09-1.65 178.61-1.96 178.61-2.86L178.61-7.78C178.61-12.18 176.57-12.99 174.58-12.99C172.54-12.99 171.50-12.12 170.72-11.26C170.38-10.81 169.76-10.98 169.76-11.93C169.76-12.54 169.32-12.96 168.36-12.82L163.80-12.07L163.80-10.81C164.84-10.89 165.56-10.70 165.56-9.38L165.56-3.11C165.56-1.76 165.09-1.32 163.77-1.23L163.77 0L171.50 0L171.50-1.23C170.24-1.32 169.76-1.76 169.76-3.11L169.76-6.94C169.76-9.02 170.66-10.19 172.28-10.19C173.71-10.19 174.41-8.96 174.41-6.94L174.41-2.49C174.41-0.90 175.45 0.14 177.30 0.14ZM197.01 0.17C199.98 0.17 202.84-1.04 202.84-4.09C202.84-7.17 199.53-7.87 197.52-8.46C196.37-8.76 195.36-9.27 195.36-10.22C195.36-10.95 196.09-11.54 196.96-11.54C198.50-11.54 199.17-10.72 199.17-9.55C199.17-9.10 199.59-8.51 200.65-8.51C201.86-8.51 202.22-9.07 202.22-9.97C202.22-12.07 199.36-12.88 197.10-12.88C194.24-12.88 191.64-11.54 191.64-9.07C191.64-6.47 194.32-5.35 196.51-4.70C198.33-4.17 199.06-3.86 199.06-2.86C199.06-2.30 198.78-1.18 197.26-1.18C196.06-1.18 194.66-1.88 194.66-3.36C194.66-4.09 194.18-4.84 192.92-4.84C191.89-4.84 191.33-4.20 191.33-3.19C191.33-1.04 193.93 0.17 197.01 0.17Z"></path></g></g></g></g></svg>